<svg width="200" height="200" xmlns="http://www.w3.org/2000/svg" xmlns:svg="http://www.w3.org/2000/svg">
 <!-- Created with SVG-edit - http://svg-edit.googlecode.com/ -->
 <title>test</title>
 <rect fill="transparent" x="0" y="0" width="200" height="200" fill-opacity="1"/>
 <g style="fill:transparent">
  <title>second bird</title>
  <path fill="#42bcda" d="
    m25,180
    a30,75 45 1 0 160,-150
    a20,50 225 1 1 -110,100
    a10,25 45 1 1 60,-50
    a20,50 225 1 0 -110,100
    " />
 </g>
 <g style="fill:transparent">
  <title>second bird</title>
  <path fill="#18829c" d="
    m15,160
    a30,75 45 1 0 160,-150
    a20,50 225 1 1 -110,100
    a10,25 45 1 1 60,-50
    a20,50 225 1 0 -110,100
    " />
 </g>
</svg>
